<svg width="145" height="32" xmlns="http://www.w3.org/2000/svg"><g fill="#FFF" fill-rule="evenodd"><path d="M15.117 2.298a1.503 1.503 0 011.796 0 56.974 56.974 0 013.992 2.78s.3.199.4-.199a4.08 4.08 0 01.1-1.489.748.748 0 01.698-.496s1.497.099 2.495.198a.995.995 0 01.798.894s.599 4.17.798 5.66c.21.787.622 1.506 1.198 2.084a41.683 41.683 0 012.495 3.774s.499 1.092-.599 1.191c0 0-2.096.199-2.295.298a.557.557 0 00-.5.596s-.099 7.248-.598 10.822c0 0-.1 1.39-.898 1.39 0 0-2.096-.099-2.595-.099 0 0-.2 0-.2-.298 0 0 1.098-11.319.4-17.078a.993.993 0 00-.6-.893s-.498-.199-.997.496a17.9 17.9 0 00-3.393 10.227c-.065.767.003 1.54.2 2.284 0 0 .2.298 1.097.397l1.098.198s.2 0 .2.298c0 0-.3 3.376-.3 3.972.015.14-.02.28-.1.397a.581.581 0 01-.399.1H13.92a.49.49 0 01-.299-.1c-.1-.198-.3-4.27-.3-4.865 0-.1.1-.199.2-.298a2.977 2.977 0 001.397-2.184 7.755 7.755 0 000-1.887s.2-6.355.2-7.447c0 0 .1-.298-.4-.397a.38.38 0 00-.498.298s-.3 4.27-.3 5.858c0 0 .1 1.092-.598 1.092 0 0-.699.1-.799-.794 0 0 .1-4.07.2-6.156a.428.428 0 00-.4-.397c-.199-.1-.498.1-.498.397 0 0-.3 3.972-.3 5.957 0 0 .1.993-.698.993 0 0-.699.1-.699-.794 0 0 .2-5.66.2-6.057a.457.457 0 00-.4-.496h-.1c-.199 0-.498.1-.498.397v.1s-.32 6.751-.32 8.737a3.599 3.599 0 001.497 2.88c.114.057.19.17.2.297 0 0 .2 3.575.3 4.766 0 0 .1.298-.2.298l-3.793-.199s-.598.1-.798-.695a93.854 93.854 0 01-.698-11.418.557.557 0 00-.5-.596s-1.896-.198-2.395-.298a.824.824 0 01-.598-.993c0-.099.1-.099.1-.198A41.024 41.024 0 0115.116 2.298z"/><path d="M119.53 16.342a5.95 5.95 0 014.212 0 4.3 4.3 0 011.704 1.027c.491.45.87 1.013 1.103 1.644a8.273 8.273 0 010 4.931 3.599 3.599 0 01-1.103 1.644 5.587 5.587 0 01-1.704 1.027 5.95 5.95 0 01-4.212 0 4.37 4.37 0 01-1.704-1.027 4.803 4.803 0 01-1.103-1.644 6.956 6.956 0 010-4.931 3.681 3.681 0 011.103-1.644 5.717 5.717 0 011.704-1.027zm-64.376-.616a4.655 4.655 0 012.005.41c.53.244 1.007.593 1.404 1.028a8.39 8.39 0 01.903 1.643c.2.701.301 1.428.3 2.158v.513a.47.47 0 01-.095.343.448.448 0 01-.306.171h-6.317a.223.223 0 00-.2.206c.077.655.359 1.267.802 1.746.44.322.964.5 1.504.514a2.233 2.233 0 001.805-.822c.1-.206.3-.206.501-.103l.1.103 1.404 1.027c.035.022.065.05.09.082a.387.387 0 01-.09.534c-.444.424-.952.77-1.504 1.028a6.18 6.18 0 01-2.306.513 7.852 7.852 0 01-2.106-.41 4.37 4.37 0 01-1.705-1.028 4.803 4.803 0 01-1.103-1.644 6.967 6.967 0 010-4.93 3.681 3.681 0 011.103-1.644 5.717 5.717 0 011.705-1.028 5.135 5.135 0 012.106-.41zm17.448 0a3.93 3.93 0 011.905.41c.53.244 1.007.593 1.404 1.028h-.02c.3.513.601 1.027 1.002 1.643.2.701.302 1.428.301 2.158v.513a.47.47 0 01-.096.343.448.448 0 01-.305.171h-6.317a.223.223 0 00-.2.206c.077.655.358 1.267.801 1.746.44.322.964.5 1.505.514a2.233 2.233 0 001.805-.822c.1-.206.3-.206.5-.103l.101.103 1.404 1.027a.234.234 0 01.07.072.387.387 0 01-.07.544c-.444.424-.952.77-1.504 1.028a6.18 6.18 0 01-2.306.513 7.852 7.852 0 01-2.106-.41 4.37 4.37 0 01-1.705-1.028 4.805 4.805 0 01-1.083-1.644 8.273 8.273 0 010-4.93 3.681 3.681 0 011.103-1.644 5.717 5.717 0 011.705-1.028 5.135 5.135 0 012.106-.41zm16.826 0a4.904 4.904 0 012.105.308c.5.246.943.596 1.304 1.027.36.482.601 1.046.702 1.644.122.92.189 1.846.2 2.773v4.623a.426.426 0 01-.4.411h-1.906a.447.447 0 01-.4-.41v-.309l-.101-.103h-.2a2.762 2.762 0 01-1.104.822 4.603 4.603 0 01-1.704.308 5.648 5.648 0 01-1.304-.205 4.052 4.052 0 01-1.103-.616 2.192 2.192 0 01-.702-.925 3.407 3.407 0 01-.3-1.336c-.002-.495.101-.986.3-1.438.212-.384.483-.73.802-1.027a3.448 3.448 0 011.204-.616l1.403-.309c.402 0 .903-.102 1.404-.102h1.103a.223.223 0 00.2-.206c-.1-.822-.2-1.335-.6-1.643a1.87 1.87 0 00-1.304-.514 2.782 2.782 0 00-2.006.822l-.04.06c-.126.143-.383.122-.562-.06l-.902-1.028-.06-.041c-.138-.129-.118-.392.06-.575a5.252 5.252 0 011.604-.925 6.143 6.143 0 012.307-.41zM66.886 11c.217.01.39.188.401.41v1.645a.426.426 0 01-.401.41h-.501a1.97 1.97 0 00-1.103.309c-.301.205-.402.719-.402 1.335v.72c.01.109.094.195.201.205h1.504c.2 0 .401.205.301.719v1.54a.426.426 0 01-.401.412H64.98a.223.223 0 00-.2.205v7.397a.426.426 0 01-.402.41h-2.106a.695.695 0 01-.4-.513v-7.397a.223.223 0 00-.201-.205h-1.304a.447.447 0 01-.401-.41V16.65a.447.447 0 01.401-.41h1.304a.223.223 0 00.2-.206V14.62c.008-.387.042-.772.1-1.154.039-.455.214-.886.502-1.233a2.49 2.49 0 011.103-.925A6.698 6.698 0 0165.582 11zm17.347 4.726c.201 0 .502.205.301.616v1.85a.426.426 0 01-.4.41H83.03c-.38-.04-.762.03-1.103.205a2.86 2.86 0 00-.802.72 3.47 3.47 0 00-.401 1.027c-.079.44-.112.888-.1 1.335v4.315a.426.426 0 01-.401.41h-2.106a.447.447 0 01-.401-.41v-9.657a.685.685 0 01.501-.41h2.106c.3 0 .501.102.501.41v.617a.417.417 0 00.2.103l.101-.103v-.206l.137-.187a3.24 3.24 0 01.665-.635 3.304 3.304 0 011.705-.41zm50.338 0a4.51 4.51 0 013.109 1.027c.672.99.99 2.187.902 3.39v5.856c.011.019.011.042 0 .061a.373.373 0 01-.126.264.355.355 0 01-.275.085h-.601a.447.447 0 01-.401-.41v-.617l-.1-.103c0-.102-.101-.102-.201 0l-.1.103-.226.17c-.226.183-.451.395-.677.55a4.37 4.37 0 01-1.905.513 5.941 5.941 0 01-1.404-.206 3.738 3.738 0 01-1.103-.513 6.341 6.341 0 01-.702-.925 3.555 3.555 0 01-.3-1.438 3.482 3.482 0 01.6-2.157c.39-.49.915-.847 1.505-1.028.622-.192 1.26-.33 1.905-.41.632-.08 1.269-.115 1.905-.103h.401a.223.223 0 00.201-.206v-.41a2.248 2.248 0 00-.602-1.542 2.543 2.543 0 00-1.704-.513 3.83 3.83 0 00-1.504.308 3.11 3.11 0 00-1.003.514l-.1.102c-.1.103-.301 0-.502-.102l-.4-.411-.034-.069c-.086-.182-.145-.365.033-.548a6.918 6.918 0 011.404-.822 4.4 4.4 0 012.005-.41zm-6.016 8.629c.401 0 .602.103.702.308.4.432.4 1.109 0 1.541l-.093.085a1.045 1.045 0 01-1.411-.085 1.109 1.109 0 010-1.54c.218-.206.506-.317.802-.31zM38.608 12.027a.675.675 0 01.402.514v10.787c.009.109.093.195.2.205h5.154c.2 0 .401.205.602.514V26.1a.655.655 0 01-.501.411h-8.022A.49.49 0 0136 26V12.54a.48.48 0 01.401-.514zm103.153 1.85a.48.48 0 01.431.513v1.233c.01.11.094.196.2.205h2.107a.464.464 0 01.501.411v.514a.426.426 0 01-.401.41h-2.106a.223.223 0 00-.2.206v6.37c.009.252.078.499.2.719.075.211.216.392.401.513.184.113.39.183.602.206h1.183c.2 0 .401.308.2.205V26c.011.019.011.042 0 .061a.373.373 0 01-.126.264.355.355 0 01-.274.085h-1.404a3.002 3.002 0 01-1.304-.205 1.649 1.649 0 01-.802-.616 3.47 3.47 0 01-.401-1.028 6.606 6.606 0 01-.1-1.335v-5.958a.223.223 0 00-.201-.206h-1.404a.447.447 0 01-.4-.41v-.412a.685.685 0 01.5-.41h1.424a.223.223 0 00.2-.206v-1.295a.487.487 0 01.16-.332.464.464 0 01.342-.12zm-41.082 1.746a3.931 3.931 0 011.804.41 3.44 3.44 0 011.104 1.028h-.02c.2.514.4 1.027.601 1.438 0 .617.1 1.233.1 1.85v5.65a.655.655 0 01-.501.41h-2.106a.464.464 0 01-.501-.41V20.04a2.294 2.294 0 00-.2-.822 1.135 1.135 0 00-1.304-.924c-.315-.03-.63.041-.903.205a2.964 2.964 0 00-.501.617c-.14.257-.241.534-.3.821a3.154 3.154 0 00-.101.925V26a.656.656 0 01-.482.41h-2.105a.464.464 0 01-.502-.41V16.28a.487.487 0 01.16-.332.464.464 0 01.342-.12h2.075a.48.48 0 01.432.514v.41c.009.11.093.197.2.206l.1-.102.201-.206c.177-.199.379-.371.602-.514.235-.194.508-.335.802-.41.3 0 .702-.103 1.003-.103zm-52.264.41c.2 0 .401.206.301.412v9.554a.427.427 0 01-.38.41h-2.107a.447.447 0 01-.4-.41v-9.554a.685.685 0 01.5-.411zm66.803-4.93c.2 0 .401.205.502.513v14.28a.47.47 0 01-.096.342.448.448 0 01-.305.171h-1.906a.447.447 0 01-.4-.41v-.925a.348.348 0 00-.201-.103l-.1.103-.1.103-.201.205a2.71 2.71 0 01-.702.514 3.607 3.607 0 01-.903.41c-.4 0-.702.103-1.002.103a4.254 4.254 0 01-1.906-.41 4.006 4.006 0 01-1.504-1.028 4.001 4.001 0 01-1.003-1.643 9.033 9.033 0 010-4.623c.23-.586.533-1.139.903-1.644a8.225 8.225 0 011.404-1.13 3.696 3.696 0 011.805-.41 4.818 4.818 0 011.704.307c.386.103.734.317 1.003.617l.2.205.001.043c.002.06.016.06.1.06h.05c.08-.003.15-.017.15-.103v-5.136a.447.447 0 01.402-.411zm20.156 10.17a4.907 4.907 0 00-2.407.41 1.87 1.87 0 00-.902 1.645c0 .616.2 1.335.601 1.54.455.277.976.42 1.504.411.412.031.824-.04 1.204-.205.367-.078.69-.299.902-.616a3.67 3.67 0 00.501-1.13c.122-.435.19-.884.201-1.336l-.1-.514a.223.223 0 00-.2-.205zm-44.643.72h-1.404a3.063 3.063 0 00-1.002.205 2.067 2.067 0 00-.802.41 1.22 1.22 0 00-.301.822.927.927 0 00.501.822c.302.192.648.298 1.003.308.304.018.61-.017.902-.102.263-.01.514-.12.702-.309.472-.263.748-.787.702-1.335l-.1-.616a.223.223 0 00-.2-.206zm32.71-2.672a2.571 2.571 0 00-3.51 0 3.135 3.135 0 00-.601 2.055c-.042.768.17 1.528.601 2.157a2.571 2.571 0 003.51 0c.44-.625.652-1.388.602-2.157a3.25 3.25 0 00-.602-2.055zm-11.13-.205a2.571 2.571 0 00-3.51 0 3.313 3.313 0 00-.602 2.054 3.64 3.64 0 00.602 2.158 2.571 2.571 0 003.51 0c.44-.626.652-1.389.601-2.158a3.491 3.491 0 00-.602-2.054zm-57.358-1.233a2.198 2.198 0 00-1.504.616 2.491 2.491 0 00-.401.617c-.1.205-.2.308-.2.513.009.11.093.196.2.206h3.48a.26.26 0 00.18-.103.272.272 0 00.05-.205 1.61 1.61 0 00-.501-1.13 1.87 1.87 0 00-1.304-.514zm17.227 0c-.309.022-.613.091-.902.205a1.909 1.909 0 00-1.003 1.028c-.1.205-.2.308-.2.513.009.11.094.196.2.206h3.51c.2 0 .3-.103.2-.308a1.61 1.61 0 00-.501-1.13 1.87 1.87 0 00-1.304-.514zm-24.848-6.78c.477-.016.93.216 1.204.616.327.321.51.768.501 1.233-.01.478-.207.931-.546 1.26-.34.328-.793.503-1.259.486-.967-.033-1.727-.858-1.705-1.849.077-.97.856-1.723 1.805-1.746z" fill-rule="nonzero"/></g></svg>
